<svg xmlns="http://www.w3.org/2000/svg" width="1680" height="700" viewBox="0 0 1680 700" font-family="Helvetica, Arial, sans-serif" direction="ltr"><rect width="1680" height="700" fill="#f6f8fb"/><line x1="0" y1="64" x2="0" y2="700" stroke="#e6ecf3" stroke-width="1"/><line x1="40" y1="64" x2="40" y2="700" stroke="#e6ecf3" stroke-width="1"/><line x1="80" y1="64" x2="80" y2="700" stroke="#e6ecf3" stroke-width="1"/><line x1="120" y1="64" x2="120" y2="700" stroke="#e6ecf3" stroke-width="1"/><line x1="160" y1="64" x2="160" y2="700" stroke="#e6ecf3" stroke-width="1"/><line x1="200" y1="64" x2="200" y2="700" stroke="#e6ecf3" stroke-width="1"/><line x1="240" y1="64" x2="240" y2="700" stroke="#e6ecf3" stroke-width="1"/><line x1="280" y1="64" x2="280" y2="700" stroke="#e6ecf3" stroke-width="1"/><line x1="320" y1="64" x2="320" y2="700" stroke="#e6ecf3" stroke-width="1"/><line x1="360" y1="64" x2="360" y2="700" stroke="#e6ecf3" stroke-width="1"/><line x1="400" y1="64" x2="400" y2="700" stroke="#e6ecf3" stroke-width="1"/><line x1="440" y1="64" x2="440" y2="700" stroke="#e6ecf3" stroke-width="1"/><line x1="480" y1="64" x2="480" y2="700" stroke="#e6ecf3" stroke-width="1"/><line x1="520" y1="64" x2="520" y2="700" stroke="#e6ecf3" stroke-width="1"/><line x1="560" y1="64" x2="560" y2="700" stroke="#e6ecf3" stroke-width="1"/><line x1="600" y1="64" x2="600" y2="700" stroke="#e6ecf3" stroke-width="1"/><line x1="640" y1="64" x2="640" y2="700" stroke="#e6ecf3" stroke-width="1"/><line x1="680" y1="64" x2="680" y2="700" stroke="#e6ecf3" stroke-width="1"/><line x1="720" y1="64" x2="720" y2="700" stroke="#e6ecf3" stroke-width="1"/><line x1="760" y1="64" x2="760" y2="700" stroke="#e6ecf3" stroke-width="1"/><line x1="800" y1="64" x2="800" y2="700" stroke="#e6ecf3" stroke-width="1"/><line x1="840" y1="64" x2="840" y2="700" stroke="#e6ecf3" stroke-width="1"/><line x1="880" y1="64" x2="880" y2="700" stroke="#e6ecf3" stroke-width="1"/><line x1="920" y1="64" x2="920" y2="700" stroke="#e6ecf3" stroke-width="1"/><line x1="960" y1="64" x2="960" y2="700" stroke="#e6ecf3" stroke-width="1"/><line x1="1000" y1="64" x2="1000" y2="700" stroke="#e6ecf3" stroke-width="1"/><line x1="1040" y1="64" x2="1040" y2="700" stroke="#e6ecf3" stroke-width="1"/><line x1="1080" y1="64" x2="1080" y2="700" stroke="#e6ecf3" stroke-width="1"/><line x1="1120" y1="64" x2="1120" y2="700" stroke="#e6ecf3" stroke-width="1"/><line x1="1160" y1="64" x2="1160" y2="700" stroke="#e6ecf3" stroke-width="1"/><line x1="1200" y1="64" x2="1200" y2="700" stroke="#e6ecf3" stroke-width="1"/><line x1="1240" y1="64" x2="1240" y2="700" stroke="#e6ecf3" stroke-width="1"/><line x1="1280" y1="64" x2="1280" y2="700" stroke="#e6ecf3" stroke-width="1"/><line x1="1320" y1="64" x2="1320" y2="700" stroke="#e6ecf3" stroke-width="1"/><line x1="1360" y1="64" x2="1360" y2="700" stroke="#e6ecf3" stroke-width="1"/><line x1="1400" y1="64" x2="1400" y2="700" stroke="#e6ecf3" stroke-width="1"/><line x1="1440" y1="64" x2="1440" y2="700" stroke="#e6ecf3" stroke-width="1"/><line x1="1480" y1="64" x2="1480" y2="700" stroke="#e6ecf3" stroke-width="1"/><line x1="1520" y1="64" x2="1520" y2="700" stroke="#e6ecf3" stroke-width="1"/><line x1="1560" y1="64" x2="1560" y2="700" stroke="#e6ecf3" stroke-width="1"/><line x1="1600" y1="64" x2="1600" y2="700" stroke="#e6ecf3" stroke-width="1"/><line x1="1640" y1="64" x2="1640" y2="700" stroke="#e6ecf3" stroke-width="1"/><line x1="0" y1="80" x2="1680" y2="80" stroke="#e6ecf3" stroke-width="1"/><line x1="0" y1="120" x2="1680" y2="120" stroke="#e6ecf3" stroke-width="1"/><line x1="0" y1="160" x2="1680" y2="160" stroke="#e6ecf3" stroke-width="1"/><line x1="0" y1="200" x2="1680" y2="200" stroke="#e6ecf3" stroke-width="1"/><line x1="0" y1="240" x2="1680" y2="240" stroke="#e6ecf3" stroke-width="1"/><line x1="0" y1="280" x2="1680" y2="280" stroke="#e6ecf3" stroke-width="1"/><line x1="0" y1="320" x2="1680" y2="320" stroke="#e6ecf3" stroke-width="1"/><line x1="0" y1="360" x2="1680" y2="360" stroke="#e6ecf3" stroke-width="1"/><line x1="0" y1="400" x2="1680" y2="400" stroke="#e6ecf3" stroke-width="1"/><line x1="0" y1="440" x2="1680" y2="440" stroke="#e6ecf3" stroke-width="1"/><line x1="0" y1="480" x2="1680" y2="480" stroke="#e6ecf3" stroke-width="1"/><line x1="0" y1="520" x2="1680" y2="520" stroke="#e6ecf3" stroke-width="1"/><line x1="0" y1="560" x2="1680" y2="560" stroke="#e6ecf3" stroke-width="1"/><line x1="0" y1="600" x2="1680" y2="600" stroke="#e6ecf3" stroke-width="1"/><line x1="0" y1="640" x2="1680" y2="640" stroke="#e6ecf3" stroke-width="1"/><line x1="0" y1="680" x2="1680" y2="680" stroke="#e6ecf3" stroke-width="1"/><rect x="0" y="0" width="1680" height="64" fill="#e9eef5"/><rect x="0" y="63" width="1680" height="1.5" fill="#94a6b8"/><defs><marker id="ah-teal" markerWidth="12" markerHeight="12" refX="8" refY="3.5" orient="auto" markerUnits="userSpaceOnUse"><path d="M0,0 L9,3.5 L0,7 Z" fill="#0b8c83"/></marker><marker id="ah-green" markerWidth="12" markerHeight="12" refX="8" refY="3.5" orient="auto" markerUnits="userSpaceOnUse"><path d="M0,0 L9,3.5 L0,7 Z" fill="#1d8f4e"/></marker><marker id="ah-amber" markerWidth="12" markerHeight="12" refX="8" refY="3.5" orient="auto" markerUnits="userSpaceOnUse"><path d="M0,0 L9,3.5 L0,7 Z" fill="#b9781a"/></marker><marker id="ah-red" markerWidth="12" markerHeight="12" refX="8" refY="3.5" orient="auto" markerUnits="userSpaceOnUse"><path d="M0,0 L9,3.5 L0,7 Z" fill="#cf3441"/></marker><marker id="ah-blue" markerWidth="12" markerHeight="12" refX="8" refY="3.5" orient="auto" markerUnits="userSpaceOnUse"><path d="M0,0 L9,3.5 L0,7 Z" fill="#2a64c8"/></marker><marker id="ah-muted" markerWidth="12" markerHeight="12" refX="8" refY="3.5" orient="auto" markerUnits="userSpaceOnUse"><path d="M0,0 L9,3.5 L0,7 Z" fill="#566679"/></marker></defs><text x="28" y="41" fill="#16212e" font-family="'JetBrains Mono','Courier New',monospace" font-size="21" font-weight="700">What happens when you type google.com -&gt; Enter</text><text x="1652" y="41" text-anchor="end" fill="#0b8c83" font-family="'JetBrains Mono','Courier New',monospace" font-size="14" font-weight="700">request flow</text><rect x="60" y="300" width="160" height="112" rx="6" fill="#ffffff" stroke="#2a64c8" stroke-width="2.2"/><text x="140.0" y="363.14" text-anchor="middle" fill="#16212e" font-family="Helvetica, Arial, sans-serif" font-size="21" font-weight="700"><tspan x="140.0" dy="0.0">browser</tspan></text><rect x="260" y="100" width="180" height="92" rx="6" fill="#ffffff" stroke="#b9781a" stroke-width="2.2"/><text x="350.0" y="151.44" text-anchor="middle" fill="#16212e" font-family="Helvetica, Arial, sans-serif" font-size="16" font-weight="700"><tspan x="350.0" dy="0.0">DNS resolver</tspan></text><rect x="500" y="290" width="22" height="140" rx="3" fill="#fbecee" stroke="#cf3441" stroke-width="2" stroke-dasharray="5 3"/><text x="511" y="360.0" text-anchor="middle" fill="#cf3441" font-family="'JetBrains Mono','Courier New',monospace" font-size="11" font-weight="700" transform="rotate(-90 511 360.0)">FIREWALL</text><rect x="458" y="270" width="106" height="18" rx="3" fill="#f6f8fb" opacity="0.92"/><text x="511" y="280" text-anchor="middle" fill="#cf3441" font-family="'JetBrains Mono','Courier New',monospace" font-size="10.5" font-weight="600"><tspan x="511" dy="0.0">accepts TCP/443</tspan></text><rect x="580" y="300" width="230" height="124" rx="6" fill="#ffffff" stroke="#0b8c83" stroke-width="2.2"/><text x="695.0" y="347.38" text-anchor="middle" fill="#16212e" font-family="Helvetica, Arial, sans-serif" font-size="17" font-weight="700"><tspan x="695.0" dy="0.0">Load Balancer</tspan><tspan x="695.0" dy="20.1">(HAProxy)</tspan></text><text x="695.0" y="387.5" text-anchor="middle" fill="#566679" font-family="Helvetica, Arial, sans-serif" font-size="12" font-weight="400"><tspan x="695.0" dy="0.0">SSL/TLS termination</tspan></text><rect x="910" y="185" width="700" height="330" rx="9" fill="none" stroke="#2a64c8" stroke-width="2" stroke-dasharray="8 5"/><rect x="924" y="172" width="265.4" height="24" rx="4" fill="#f6f8fb"/><text x="932" y="189" fill="#2a64c8" font-family="'JetBrains Mono','Courier New',monospace" font-size="14" font-weight="700">web server host (one of many)</text><rect x="950" y="260" width="185" height="100" rx="6" fill="#ffffff" stroke="#0b8c83" stroke-width="2.2"/><text x="1042.5" y="305.84" text-anchor="middle" fill="#16212e" font-family="Helvetica, Arial, sans-serif" font-size="16" font-weight="700"><tspan x="1042.5" dy="0.0">Web server</tspan><tspan x="1042.5" dy="18.9">(Nginx)</tspan></text><rect x="1200" y="260" width="175" height="100" rx="6" fill="#ffffff" stroke="#2a64c8" stroke-width="2.2"/><text x="1287.5" y="315.44" text-anchor="middle" fill="#16212e" font-family="Helvetica, Arial, sans-serif" font-size="16" font-weight="700"><tspan x="1287.5" dy="0.0">App server</tspan></text><path d="M1442.5,266.4 A57.5,18.400000000000002 0 0 1 1557.5,266.4 L1557.5,353.6 A57.5,18.400000000000002 0 0 1 1442.5,353.6 Z" fill="#ffffff" stroke="#1d8f4e" stroke-width="2.2"/><path d="M1442.5,266.4 A57.5,18.400000000000002 0 0 0 1557.5,266.4" fill="none" stroke="#1d8f4e" stroke-width="2.2"/><text x="1500" y="308" text-anchor="middle" fill="#16212e" font-family="Helvetica, Arial, sans-serif" font-size="15" font-weight="700"><tspan x="1500" dy="0.0">Database</tspan></text><text x="1500" y="329" text-anchor="middle" fill="#1d8f4e" font-family="Helvetica, Arial, sans-serif" font-size="12" font-weight="700"><tspan x="1500" dy="0.0">MySQL</tspan></text><line x1="222" y1="308" x2="332" y2="196" stroke="#0b8c83" stroke-width="2.4" marker-end="url(#ah-teal)"/><rect x="134" y="195" width="192" height="20" rx="3" fill="#f6f8fb" opacity="0.92"/><text x="229.9124213997781" y="205.75327101763924" text-anchor="middle" fill="#0b8c83" font-family="'JetBrains Mono','Courier New',monospace" font-size="12" font-weight="600"><tspan x="229.9124213997781" dy="0.0">1 - DNS query: google.com</tspan></text><line x1="368" y1="196" x2="258" y2="308" stroke="#1d8f4e" stroke-width="2.4" marker-end="url(#ah-green)"/><rect x="252" y="290" width="199" height="20" rx="3" fill="#f6f8fb" opacity="0.92"/><text x="351.73378595778416" y="301.04389692282376" text-anchor="middle" fill="#1d8f4e" font-family="'JetBrains Mono','Courier New',monospace" font-size="12" font-weight="600"><tspan x="351.73378595778416" dy="0.0">2 - reply: 142.250.x.x (A)</tspan></text><line x1="222" y1="356" x2="578" y2="358" stroke="#0b8c83" stroke-width="2.4" marker-end="url(#ah-teal)"/><rect x="430" y="340" width="18" height="13" rx="2" fill="none" stroke="#1d8f4e" stroke-width="2"/><path d="M434,340 v-3 a5,5 0 0 1 10,0 v3" fill="none" stroke="#1d8f4e" stroke-width="2"/><rect x="152" y="377" width="415" height="20" rx="3" fill="#f6f8fb" opacity="0.92"/><text x="360" y="388" text-anchor="middle" fill="#0b8c83" font-family="'JetBrains Mono','Courier New',monospace" font-size="12" font-weight="600"><tspan x="360" dy="0.0">3 - connect to server IP : 443  -  HTTPS/SSL (encrypted)</tspan></text><line x1="812" y1="348" x2="948" y2="312" stroke="#0b8c83" stroke-width="2.4" marker-end="url(#ah-teal)"/><rect x="760" y="270" width="203" height="19" rx="3" fill="#f6f8fb" opacity="0.92"/><text x="862" y="280" text-anchor="middle" fill="#0b8c83" font-family="'JetBrains Mono','Courier New',monospace" font-size="11" font-weight="600"><tspan x="862" dy="0.0">4 - distributes (round robin)</tspan></text><line x1="1137" y1="300" x2="1198" y2="300" stroke="#566679" stroke-width="2.4" marker-end="url(#ah-muted)"/><line x1="1198" y1="322" x2="1137" y2="322" stroke="#566679" stroke-width="2.4" marker-end="url(#ah-muted)"/><rect x="1119" y="240" width="98" height="19" rx="3" fill="#f6f8fb" opacity="0.92"/><text x="1168" y="250" text-anchor="middle" fill="#566679" font-family="'JetBrains Mono','Courier New',monospace" font-size="11" font-weight="600"><tspan x="1168" dy="0.0">reverse proxy</tspan></text><line x1="1377" y1="300" x2="1442" y2="300" stroke="#566679" stroke-width="2.4" marker-end="url(#ah-muted)"/><line x1="1442" y1="322" x2="1377" y2="322" stroke="#566679" stroke-width="2.4" marker-end="url(#ah-muted)"/><rect x="1394" y="240" width="71" height="19" rx="3" fill="#f6f8fb" opacity="0.92"/><text x="1430" y="250" text-anchor="middle" fill="#566679" font-family="'JetBrains Mono','Courier New',monospace" font-size="11" font-weight="600"><tspan x="1430" dy="0.0">SQL query</tspan></text><line x1="1042" y1="360" x2="1042" y2="482" stroke="#1d8f4e" stroke-width="2.4" marker-end="url(#ah-green)"/><line x1="1042" y1="482" x2="224" y2="404" stroke="#1d8f4e" stroke-width="2.4" marker-end="url(#ah-green)"/><rect x="530" y="415" width="274" height="20" rx="3" fill="#f6f8fb" opacity="0.92"/><text x="667.6184790488134" y="426.21030946244474" text-anchor="middle" fill="#1d8f4e" font-family="'JetBrains Mono','Courier New',monospace" font-size="12.5" font-weight="600"><tspan x="667.6184790488134" dy="0.0">5 - response: rendered page (HTTPS)</tspan></text></svg>